<?xml version="1.0" standalone="no"?>
<svg xmlns:xlink="http://www.w3.org/1999/xlink" id="wave" style="transform:rotate(0deg); transition: 0.3s" viewBox="0 0 1440 290" version="1.1" xmlns="http://www.w3.org/2000/svg"><defs><linearGradient id="sw-gradient-0" x1="0" x2="0" y1="1" y2="0"><stop stop-color="rgba(72, 171, 255, 1)" offset="0%"/><stop stop-color="rgba(118.153, 185.026, 241.766, 1)" offset="100%"/></linearGradient></defs><path style="transform:translate(0, 0px); opacity:1" fill="url(#sw-gradient-0)" d="M0,232L102.9,232L205.7,0L308.6,116L411.4,29L514.3,261L617.1,203L720,0L822.9,116L925.7,29L1028.6,116L1131.4,203L1234.3,87L1337.1,0L1440,87L1542.9,87L1645.7,232L1748.6,116L1851.4,116L1954.3,116L2057.1,203L2160,145L2262.9,58L2365.7,261L2468.6,203L2468.6,290L2365.7,290L2262.9,290L2160,290L2057.1,290L1954.3,290L1851.4,290L1748.6,290L1645.7,290L1542.9,290L1440,290L1337.1,290L1234.3,290L1131.4,290L1028.6,290L925.7,290L822.9,290L720,290L617.1,290L514.3,290L411.4,290L308.6,290L205.7,290L102.9,290L0,290Z"/><defs><linearGradient id="sw-gradient-1" x1="0" x2="0" y1="1" y2="0"><stop stop-color="rgba(72, 171, 255, 1)" offset="0%"/><stop stop-color="rgba(255, 248.021, 232.595, 1)" offset="100%"/></linearGradient></defs><path style="transform:translate(0, 50px); opacity:0.9" fill="url(#sw-gradient-1)" d="M0,0L102.9,145L205.7,116L308.6,261L411.4,203L514.3,29L617.1,174L720,87L822.9,232L925.7,174L1028.6,116L1131.4,58L1234.3,0L1337.1,261L1440,174L1542.9,87L1645.7,174L1748.6,232L1851.4,261L1954.3,58L2057.1,203L2160,87L2262.9,29L2365.7,174L2468.6,203L2468.6,290L2365.7,290L2262.9,290L2160,290L2057.1,290L1954.3,290L1851.4,290L1748.6,290L1645.7,290L1542.9,290L1440,290L1337.1,290L1234.3,290L1131.4,290L1028.6,290L925.7,290L822.9,290L720,290L617.1,290L514.3,290L411.4,290L308.6,290L205.7,290L102.9,290L0,290Z"/></svg>